<svg width="148" height="30" viewBox="0 0 148 30" fill="none" xmlns="http://www.w3.org/2000/svg">
<path d="M14.9981 5.28558C16.1325 4.68415 17.4267 4.34155 18.8047 4.34155C23.304 4.34155 26.9508 7.98826 26.9508 12.4876C26.9508 13.287 26.3037 13.9341 25.5042 13.9341C24.7049 13.9341 24.0577 13.287 24.0577 12.4876C24.0577 9.587 21.7052 7.23455 18.8047 7.23455C18.3707 7.23455 17.9444 7.28784 17.5409 7.38681C18.6676 8.78005 19.3376 10.5539 19.3376 12.4876C19.3376 14.8858 17.3962 16.8272 14.9981 16.8272C12.6 16.8272 10.6586 14.8858 10.6586 12.4876C10.6586 11.1173 10.9936 9.83061 11.595 8.69628C12.6151 8.80284 13.5211 9.31293 14.1378 10.0666C13.7648 10.7899 13.5516 11.6121 13.5516 12.48C13.5516 13.2794 14.1987 13.9265 14.9981 13.9265C15.7975 13.9265 16.4446 13.2794 16.4446 12.48C16.4446 11.0792 15.8964 9.80783 14.9981 8.86376C14.3205 8.15575 13.445 7.63043 12.4552 7.38681C12.0518 7.28784 11.6255 7.23455 11.1915 7.23455C8.29088 7.23455 5.93841 9.587 5.93841 12.4876C5.93841 13.287 5.29129 13.9341 4.49191 13.9341C3.69252 13.9341 3.04541 13.287 3.04541 12.4876C3.04541 7.98826 6.69215 4.34155 11.1915 4.34155C12.5694 4.34155 13.8637 4.68415 14.9981 5.28558Z" fill="#3047B9"/>
<path d="M4.46137 16.0124C5.20745 15.7231 6.04489 16.0885 6.33418 16.8346C7.68173 20.3062 11.0544 22.7653 14.998 22.7653C18.9416 22.7653 22.3143 20.3062 23.6617 16.8346C23.9511 16.0961 24.7885 15.7231 25.5346 16.0124C26.2807 16.3017 26.6461 17.1392 26.3569 17.8852C24.5906 22.4303 20.1749 25.6582 14.998 25.6582C9.82102 25.6582 5.40535 22.4303 3.63909 17.8852C3.3498 17.1392 3.71522 16.3017 4.46137 16.0124Z" fill="#3047B9"/>
<path d="M123.028 11.3988H120.466V16.1193C120.466 16.5126 120.564 16.8001 120.761 16.9816C120.957 17.1632 121.245 17.2691 121.623 17.2994C122 17.3145 122.469 17.3069 123.028 17.2767V19.9319C121.018 20.1588 119.597 19.9697 118.765 19.3646C117.949 18.7594 117.541 17.6776 117.541 16.1193V11.3988H115.567V8.58469H117.541V6.29255L120.466 5.40747V8.58469H123.028V11.3988Z" fill="#3047B9"/>
<path d="M140.886 10.5072C141.16 9.77155 141.607 9.21987 142.229 8.85199C142.866 8.4842 143.572 8.30029 144.345 8.30029V11.6107C143.45 11.5034 142.646 11.6873 141.933 12.1624C141.235 12.6375 140.886 13.4268 140.886 14.5303V20.0246H137.951V8.53019H140.886V10.5072Z" fill="#3047B9"/>
<path fill-rule="evenodd" clip-rule="evenodd" d="M102.321 8.61948H99.3838V9.96364C98.5036 8.85489 97.2664 8.30054 95.6728 8.30054C94.1544 8.30054 92.8491 8.88528 91.7567 10.0547C90.6784 11.209 90.1396 12.6291 90.1396 14.3149C90.1396 16.0008 90.6784 17.4285 91.7567 18.5979C92.8491 19.7522 94.1544 20.3294 95.6728 20.3294C97.2664 20.3294 98.5036 19.775 99.3838 18.6663V20.0104H102.321V8.61948ZM96.2186 17.5271C95.3079 17.5271 94.5569 17.231 93.9649 16.6387C93.3729 16.0312 93.0769 15.2566 93.0769 14.3149C93.0769 13.3733 93.3729 12.6063 93.9649 12.014C94.5569 11.4064 95.3079 11.1027 96.2186 11.1027C97.1293 11.1027 97.8811 11.4064 98.4731 12.014C99.0799 12.6063 99.3838 13.3733 99.3838 14.3149C99.3838 15.2566 99.0799 16.0312 98.4731 16.6387C97.8811 17.231 97.1293 17.5271 96.2186 17.5271Z" fill="#3047B9"/>
<path fill-rule="evenodd" clip-rule="evenodd" d="M133.49 8.61924H136.428V20.0102H133.49V18.666C132.61 19.7748 131.373 20.3291 129.779 20.3291C128.262 20.3291 126.956 19.752 125.863 18.5977C124.786 17.4282 124.247 16.0005 124.247 14.3147C124.247 12.6288 124.786 11.2088 125.863 10.0545C126.956 8.88503 128.262 8.30029 129.779 8.30029C131.373 8.30029 132.61 8.85465 133.49 9.9634V8.61924ZM128.072 16.6384C128.664 17.2307 129.415 17.5269 130.326 17.5269C131.237 17.5269 131.988 17.2307 132.58 16.6384C133.187 16.0309 133.49 15.2563 133.49 14.3147C133.49 13.373 133.187 12.6061 132.58 12.0137C131.988 11.4062 131.237 11.1024 130.326 11.1024C129.415 11.1024 128.664 11.4062 128.072 12.0137C127.48 12.6061 127.184 13.373 127.184 14.3147C127.184 15.2563 127.48 16.0309 128.072 16.6384Z" fill="#3047B9"/>
<path fill-rule="evenodd" clip-rule="evenodd" d="M88.6171 8.61654H85.856V10.017C85.0228 8.8725 83.8545 8.30029 82.3494 8.30029C80.8154 8.30029 79.5225 8.86499 78.4701 9.99441C77.4185 11.1238 76.8926 12.4867 76.8926 14.083C76.8926 15.6943 77.4112 17.0647 78.4481 18.1941C79.5006 19.3085 80.8005 19.8656 82.3494 19.8656C83.8545 19.8656 85.0228 19.2934 85.856 18.1489V19.3687C85.856 20.2572 85.5999 20.9423 85.0886 21.4242C84.5772 21.9061 83.8756 22.1471 82.9845 22.1471C81.6258 22.1471 80.6689 21.62 80.1137 20.5658L77.7034 21.9889C78.1855 22.8925 78.8718 23.5777 79.7637 24.0445C80.6689 24.5113 81.7135 24.7448 82.8968 24.7448C84.4746 24.7448 85.8192 24.2854 86.9296 23.3669C88.054 22.4483 88.6171 21.1156 88.6171 19.3687V8.61654ZM82.7879 17.1776C81.896 17.1776 81.1583 16.8914 80.5742 16.3193C80.0041 15.732 79.7198 14.9865 79.7198 14.083C79.7198 13.1945 80.0041 12.4641 80.5742 11.8919C81.1583 11.3046 81.896 11.0109 82.7879 11.0109C83.679 11.0109 84.4089 11.3046 84.9789 11.8919C85.5631 12.4641 85.856 13.1945 85.856 14.083C85.856 14.9865 85.5631 15.732 84.9789 16.3193C84.4089 16.8914 83.679 17.1776 82.7879 17.1776Z" fill="#3047B9"/>
<path d="M71.1185 8.30054C72.3484 8.30054 73.3607 8.71872 74.1556 9.55512C74.9655 10.3914 75.3705 11.5472 75.3705 13.0222V20.0248H72.4683V13.3871C72.4683 12.6268 72.2658 12.049 71.8609 11.6536C71.456 11.243 70.916 11.0377 70.2411 11.0377C69.4912 11.0377 68.8913 11.2734 68.4413 11.7448C67.9914 12.2162 67.7664 12.9233 67.7664 13.8661V20.0248H64.8643V8.61988H67.7664V9.89724C68.4713 8.83273 69.5887 8.30054 71.1185 8.30054Z" fill="#3047B9"/>
<path d="M113.135 9.55512C112.34 8.71872 111.328 8.30054 110.098 8.30054C108.568 8.30054 107.451 8.83273 106.746 9.89724V8.61988H103.844V20.0248H106.746V13.8661C106.746 12.9233 106.971 12.2162 107.421 11.7448C107.871 11.2734 108.471 11.0377 109.22 11.0377C109.895 11.0377 110.436 11.243 110.84 11.6536C111.245 12.049 111.448 12.6268 111.448 13.3871V20.0248H114.35V13.0222C114.35 11.5472 113.945 10.3914 113.135 9.55512Z" fill="#3047B9"/>
<path fill-rule="evenodd" clip-rule="evenodd" d="M54.6786 15.3396C55.0717 16.7311 56.1375 17.4268 57.8762 17.4268C58.9949 17.4268 59.8415 17.0568 60.4161 16.3166L62.7745 17.6488C61.6557 19.2328 60.0078 20.0248 57.8308 20.0248C55.9562 20.0248 54.4519 19.4697 53.318 18.3595C52.1841 17.2492 51.6172 15.8503 51.6172 14.1627C51.6172 12.4899 52.1765 11.0984 53.2953 9.98815C54.4141 8.86304 55.8503 8.30054 57.6041 8.30054C59.2671 8.30054 60.6352 8.86304 61.7087 9.98815C62.7972 11.1132 63.3414 12.5047 63.3414 14.1627C63.3414 14.5328 63.3036 14.9251 63.2281 15.3396H54.6786ZM54.6333 13.119H60.4161C60.2497 12.3641 59.9021 11.8015 59.3729 11.4314C58.8588 11.0613 58.2693 10.8763 57.6041 10.8763C56.8179 10.8763 56.1678 11.0761 55.6538 11.4759C55.1397 11.8608 54.7996 12.4085 54.6333 13.119Z" fill="#3047B9"/>
<path d="M48.9209 9.5779C48.1535 8.72632 47.1226 8.30054 45.8284 8.30054C44.3387 8.30054 43.2175 8.848 42.4651 9.94281C41.803 8.848 40.7797 8.30054 39.3952 8.30054C37.9807 8.30054 36.9348 8.80995 36.2576 9.8288V8.61988H33.3457V20.0248H36.2576V13.6152C36.2576 12.7789 36.4457 12.1402 36.8219 11.6992C37.2132 11.2582 37.7324 11.0377 38.3794 11.0377C38.9814 11.0377 39.4479 11.2278 39.7789 11.608C40.11 11.9881 40.2755 12.5204 40.2755 13.2047V20.0248H43.1875V13.6152C43.1875 12.7789 43.368 12.1402 43.7292 11.6992C44.1054 11.2582 44.6246 11.0377 45.2867 11.0377C45.8887 11.0377 46.3551 11.2278 46.6862 11.608C47.0173 11.9881 47.1828 12.5204 47.1828 13.2047V20.0248H50.0947V12.9994C50.0947 11.57 49.7035 10.4295 48.9209 9.5779Z" fill="#3047B9"/>
</svg>
